PathFileType	4	(X/Y/Z)	5_2_42_p0_0-308_filt_butterworth.trc
DataRate	CameraRate	NumFrames	NumMarkers	Units	OrigDataRate	OrigDataStartFrame	OrigNumFrames
60.0	60.0	5	27	m	60.0	269	308
Frame#	Time	RHip			RKnee			RAnkle			RBigToe			RSmallToe			RHeel			LHip			LKnee			LAnkle			LBigToe			LSmallToe			LHeel			Neck			Head			Nose			RShoulder			RElbow			RWrist			RThumb			RIndex			RPinky			LShoulder			LElbow			LWrist			LThumb			LIndex			LPinky			
		X1	Y1	Z1	X2	Y2	Z2	X3	Y3	Z3	X4	Y4	Z4	X5	Y5	Z5	X6	Y6	Z6	X7	Y7	Z7	X8	Y8	Z8	X9	Y9	Z9	X10	Y10	Z10	X11	Y11	Z11	X12	Y12	Z12	X13	Y13	Z13	X14	Y14	Z14	X15	Y15	Z15	X16	Y16	Z16	X17	Y17	Z17	X18	Y18	Z18	X19	Y19	Z19	X20	Y20	Z20	X21	Y21	Z21	X22	Y22	Z22	X23	Y23	Z23	X24	Y24	Z24	X25	Y25	Z25	X26	Y26	Z26	X27	Y27	Z27	
269	4.483333333333333	0.41601311218229625	0.5414984844285967	0.8064336123945847	0.41379508525012754	0.6290797123997551	1.2616437353166123	0.3883560743312701	0.8085265465259865	1.6785108207031647	0.3779419103589873	0.595715343382366	1.6864197746069518	0.4373842728609489	0.6574478133733561	1.6942044456930847	0.36928225941875004	0.8613783494834488	1.738005441036499	0.22555803248792353	0.5246969838592446	0.8229206066168718	0.20932752244298106	0.6333082199018161	1.2718623881792892	0.20550192849333992	0.7681232243722125	1.6937822533177411	0.2096770511493152	0.599219938682898	1.692423063714902	0.1619048762362235	0.6293912258296617	1.685370595216234	0.19882428591283663	0.8957628961715842	1.7741590997914387	0.23124523085010662	0.4393490494412452	0.30224084276668084	0.21221718077635007	0.3823850742346314	0.060773544582725665	0.25706150223816593	0.3295577738675155	0.17890765558621788	0.3982070195195626	0.48654779852290064	0.37401102897040384	0.44669071205336663	0.5049612557608856	0.6313280984730165	0.4447379203462676	0.35768668700635536	0.8547392907467293	0.3904604100562672	0.3529476736912433	0.9606263135019915	0.4036024542631577	0.3453468344013593	0.9674384529027131	0.43681114719116965	0.33657371351118226	0.9580946792331704	0.1030095452010494	0.43894319076629174	0.409973645591936	0.12158852146438823	0.484935748410089	0.651845696480023	0.17477101347302257	0.27784696913897194	0.7710117844850221	0.20752779217498712	0.11901994187366025	0.7912507161256925	0.1937951305520677	0.10560107721157497	0.8021673443683282	0.18344445796606024	0.1695482110986754	0.8200348711594605
270	4.5	0.41342592803514533	0.543191098078354	0.8074166114392379	0.4141213677532105	0.6300316866423615	1.2618628660643734	0.387344356025727	0.8046268219213286	1.6786270639132566	0.3773627597732257	0.5924379966939803	1.6852326876186317	0.4350895374785746	0.6501184638214927	1.6916116178190932	0.3708953496089548	0.8623832224534727	1.7380814593495462	0.22396644311449215	0.524672658737701	0.8232497210392269	0.206588139241832	0.6364629247418239	1.2751004080551156	0.2048471844267534	0.768213761647927	1.6938459396187582	0.20716830576016	0.5945464195507814	1.6917601409893095	0.16204995747655163	0.6298157889385285	1.6863853929663712	0.19909613010158067	0.8960383396409783	1.7740332681893793	0.2294829172649689	0.44036514954338934	0.3023152330602368	0.21105902254003195	0.38200496525868455	0.06075169374693586	0.25611807230845235	0.32952969419769285	0.1798414829992146	0.39379423734682584	0.48582720971835514	0.37398766558972024	0.4457947170881512	0.5007351537837947	0.6292228451164403	0.43073223791147097	0.3639644007764114	0.8576190634157949	0.3815282943260874	0.3478488326096328	0.9595803029030969	0.3935167051559143	0.34600475348370824	0.9682578214012227	0.42623865610384737	0.34437691327897557	0.96165578696488	0.10237994626938496	0.4402450732183659	0.4099630406666997	0.1218292599381612	0.48093506830603794	0.651585625077052	0.18683588151819458	0.2767908380855442	0.7771987792669917	0.22742154633187256	0.13060807396582316	0.7976441741479114	0.21466026763329052	0.10666816471640712	0.8075799976946675	0.2023296341469677	0.17560496939625544	0.8301007202576507
271	4.516666666666667	0.41118624661481346	0.5429738638407181	0.807858332460701	0.41332451958616834	0.6306329079781012	1.26116579411796	0.3863204036930646	0.8019827008350002	1.6788622945223528	0.3770483742994354	0.5907980291898787	1.6845309631233893	0.4315113529208168	0.6431681576072257	1.6893250032081468	0.37187339491371374	0.8637293025904602	1.7386638750009062	0.2216673653084594	0.5252465450237706	0.8233484323794849	0.20479515155191716	0.6363722417656801	1.2784325026953829	0.20488352015659383	0.7682657034692469	1.6937410533365975	0.2047150564150764	0.5889416501048156	1.6906676532313476	0.1622671757868678	0.62930944523056	1.6861608575964957	0.19931951407766044	0.8960168637726914	1.7736238548614363	0.2275994149487466	0.44384143077809673	0.30275502639990565	0.21039467201633588	0.38199692820035624	0.06072694430681702	0.25517905482019576	0.32966978667176866	0.18234697827445873	0.3896760121206382	0.48542105228806814	0.37281148769376915	0.4450471885285889	0.49798658463877377	0.6265226710117522	0.4175028643596732	0.3732942171184144	0.860076920089577	0.37250738084002744	0.3356522710382844	0.9560321506147405	0.38325147904094037	0.3423553593773305	0.9670936241423108	0.41607996695841476	0.35676535314508767	0.9649233725372247	0.10232104124785642	0.4403283757766182	0.40987128010548013	0.12198350949075476	0.476139181508031	0.6521969272937228	0.20217754176973213	0.2670005237141973	0.7826678349570043	0.2516037329100219	0.14302808786914784	0.8061164054454536	0.23928388280422863	0.11117999861726408	0.8160521938852322	0.21904024940897948	0.18834822802068757	0.8450804303822284
272	4.533333333333333	0.4095378035972755	0.5391935816963125	0.8081780222456556	0.41118100931415164	0.6307743227162105	1.261145378266024	0.38575527012912464	0.8016016293440542	1.679717438956283	0.37667189277172186	0.5890251158849755	1.6835535180949712	0.4276962377945003	0.6385192627433307	1.688017354667307	0.3715391769812738	0.864911753108596	1.7400788032604066	0.2194658072642061	0.5254929319667773	0.8242837183967371	0.20377348816126548	0.632470117692593	1.280387347938017	0.20506541490249602	0.7682731501555953	1.6937121851388515	0.20335541573617874	0.5830945161110679	1.68895749461332	0.16234243200463377	0.6269229307255932	1.6855940965251297	0.19938946350136494	0.8958111064535581	1.7732518251118976	0.22568966326130122	0.44877154594164015	0.3038090974235825	0.20983471155931577	0.3819371784501702	0.06073740826799939	0.2546077720409342	0.3301037511856019	0.1860870032496529	0.3871853194047118	0.48521019989065156	0.37064588348086325	0.44411486831955577	0.49737322683625096	0.6244427550971281	0.40774821834577946	0.377545313318591	0.860707368246461	0.36448272897681216	0.3184113070693961	0.949380053314825	0.3729777906944013	0.33313178399597676	0.9645281432112327	0.4056646919551186	0.3669989102133581	0.9665197576780152	0.10239566116716871	0.440145981370308	0.40978316265360115	0.12196412586749814	0.47242374924551206	0.6543412756613822	0.2178820430970958	0.2551316624036162	0.7889486360969491	0.2772434636298218	0.15638243957780626	0.8174057002342611	0.26543024965147793	0.12422596006713846	0.830338746140421	0.23679786293433425	0.19964381145152907	0.8614896883074011
273	4.55	0.40741849830309373	0.5321644292393501	0.8086123045785071	0.40805466832653936	0.6308761805652761	1.263200496743345	0.3851509815714679	0.8035564930677842	1.681600756199166	0.37598677950506776	0.5855300668668142	1.681758835864293	0.4248806259505691	0.6350325167216933	1.6870713921359006	0.37026038220261215	0.8650360617892016	1.7418642109602929	0.2176443112888578	0.5237050370441693	0.8268666207359973	0.20302679343896746	0.6263866738569551	1.2809816381904342	0.20514318382347832	0.7682903944792854	1.694195214968226	0.20345624685332325	0.5763999915341002	1.6865193459941983	0.16199690932401276	0.6221343499086346	1.684872225305371	0.19896770130106603	0.8956341239636966	1.773148133922045	0.22395809586470666	0.4524245582213805	0.30522797060633206	0.20891405852928058	0.38156017029686146	0.06081960197158365	0.2541848287205732	0.3306345662389169	0.18947882172450245	0.38642269312082705	0.4850829760766959	0.368646719434459	0.44227723544655945	0.49716537985675735	0.6236815881448589	0.40186374140601977	0.3750045364135042	0.8596216204631908	0.35809016854079456	0.30049804351308196	0.9407190866956286	0.36357526338269586	0.31968094989843227	0.9614330056544722	0.3953104457017929	0.3711741830601388	0.9666528198389314	0.10242051237240782	0.4402647293042299	0.40985676357236944	0.12186248326087751	0.4695466505676484	0.6576257852532603	0.23085884772066645	0.25040634434871284	0.7971798300757804	0.3005330774818406	0.1752026836684213	0.8317647869678408	0.2887128649437737	0.14749324250106322	0.8493878923614249	0.25678194191220777	0.20787159459080318	0.8766129729348361
